<svg id="Economy_management" height="512" viewBox="0 0 64 64" width="512" xmlns="http://www.w3.org/2000/svg" data-name="Economy management"><path d="m8 8h22v2h-22z"/><path d="m8 13h22v2h-22z"/><path d="m17 18h21v2h-21z"/><path d="m59 22h-10v-14a1 1 0 0 0 -1-1h-8.59l-4.7-4.71a1.033 1.033 0 0 0 -.71-.29h-31a1 1 0 0 0 -1 1v53a1 1 0 0 0 1 1h4v4a1 1 0 0 0 1 1h51a3.009 3.009 0 0 0 3-3v-34a3.009 3.009 0 0 0 -3-3zm-12-13v13h-3v-10a1.033 1.033 0 0 0 -.29-.71l-2.3-2.29zm-12-3.59 5.59 5.59h-5.59zm-26 54.59v-3h14v2a3 3 0 0 0 .18 1zm14-35v30h-19v-51h29v8a1 1 0 0 0 1 1h8v9h-16a3.009 3.009 0 0 0 -3 3zm37 34a1 1 0 0 1 -1 1h-33a1 1 0 0 1 -1-1v-34a1 1 0 0 1 1-1h33a1 1 0 0 1 1 1z"/><path d="m57 26h-29a1 1 0 0 0 -1 1v8a1 1 0 0 0 1 1h29a1 1 0 0 0 1-1v-8a1 1 0 0 0 -1-1zm-1 8h-27v-6h27z"/><path d="m34 39h-6a1 1 0 0 0 -1 1v6a1 1 0 0 0 1 1h6a1 1 0 0 0 1-1v-6a1 1 0 0 0 -1-1zm-1 6h-4v-4h4z"/><path d="m34 49h-6a1 1 0 0 0 -1 1v6a1 1 0 0 0 1 1h6a1 1 0 0 0 1-1v-6a1 1 0 0 0 -1-1zm-1 6h-4v-4h4z"/><path d="m45 39h-6a1 1 0 0 0 -1 1v6a1 1 0 0 0 1 1h6a1 1 0 0 0 1-1v-6a1 1 0 0 0 -1-1zm-1 6h-4v-4h4z"/><path d="m56 39h-6a1 1 0 0 0 -1 1v16a1 1 0 0 0 1 1h6a1 1 0 0 0 1-1v-16a1 1 0 0 0 -1-1zm-1 16h-4v-14h4z"/><path d="m45 49h-6a1 1 0 0 0 -1 1v6a1 1 0 0 0 1 1h6a1 1 0 0 0 1-1v-6a1 1 0 0 0 -1-1zm-1 6h-4v-4h4z"/><path d="m11 16a4 4 0 0 0 -4 4v27.71a.976.976 0 0 0 .1.44l3 6.28a1 1 0 0 0 1.8 0l3-6.28a.976.976 0 0 0 .1-.44v-27.71a4 4 0 0 0 -4-4zm0 35.68-1.76-3.68h3.52zm2-5.68h-4v-19h4zm0-21h-4v-2h4zm0-4h-4v-1a2 2 0 0 1 4 0z"/></svg>