<svg id="Economy_management" height="512" viewBox="0 0 64 64" width="512" xmlns="http://www.w3.org/2000/svg" data-name="Economy management"><path d="m40 51h4v4h-4z"/><path d="m40 41h4v4h-4z"/><path d="m9 23h4v2h-4z"/><path d="m9 27h4v19h-4z"/><path d="m29 51h4v4h-4z"/><path d="m42 22v-9h-8a1 1 0 0 1 -1-1v-8h-29v52h19v-31a3.009 3.009 0 0 1 3-3zm-34-14h22v2h-22zm0 5h22v2h-22zm7 34.71a.976.976 0 0 1 -.1.44l-3 6.28a1 1 0 0 1 -1.8 0l-3-6.28a.976.976 0 0 1 -.1-.44v-27.71a4 4 0 0 1 8 0zm2-27.71v-2h21v2z"/><path d="m29 41h4v4h-4z"/><path d="m11 51.68 1.76-3.68h-3.52z"/><path d="m23.18 60h-14.18v-2h14v1a3 3 0 0 0 .18 1z"/><path d="m59 24h-33a1 1 0 0 0 -1 1v34a1 1 0 0 0 1 1h33a1 1 0 0 0 1-1v-34a1 1 0 0 0 -1-1zm-24 32a1 1 0 0 1 -1 1h-6a1 1 0 0 1 -1-1v-6a1 1 0 0 1 1-1h6a1 1 0 0 1 1 1zm0-10a1 1 0 0 1 -1 1h-6a1 1 0 0 1 -1-1v-6a1 1 0 0 1 1-1h6a1 1 0 0 1 1 1zm11 10a1 1 0 0 1 -1 1h-6a1 1 0 0 1 -1-1v-6a1 1 0 0 1 1-1h6a1 1 0 0 1 1 1zm0-10a1 1 0 0 1 -1 1h-6a1 1 0 0 1 -1-1v-6a1 1 0 0 1 1-1h6a1 1 0 0 1 1 1zm11 10a1 1 0 0 1 -1 1h-6a1 1 0 0 1 -1-1v-16a1 1 0 0 1 1-1h6a1 1 0 0 1 1 1zm1-21a1 1 0 0 1 -1 1h-29a1 1 0 0 1 -1-1v-8a1 1 0 0 1 1-1h29a1 1 0 0 1 1 1z"/><path d="m44 12v10h3v-13h-5.59l2.3 2.29a1.033 1.033 0 0 1 .29.71z"/><path d="m11 18a2.006 2.006 0 0 0 -2 2v1h4v-1a2.006 2.006 0 0 0 -2-2z"/><path d="m51 41h4v14h-4z"/><path d="m35 5.41v5.59h5.59z"/><path d="m29 28h27v6h-27z"/></svg>